<svg width="21" height="9" viewBox="0 0 21 9" fill="none" xmlns="http://www.w3.org/2000/svg">
<path d="M3.48516 8.07834C5.30502 8.07834 6.38602 6.65518 6.38602 4.24523C6.38602 3.33778 6.21247 2.57413 5.88023 1.98404C5.39923 1.06667 4.57112 0.570801 3.52483 0.570801C1.96778 0.570801 0.866943 1.6171 0.866943 3.08488C0.866943 4.46341 1.85869 5.46508 3.22235 5.46508C4.06037 5.46508 4.73972 5.07334 5.07691 4.39399H5.09179C5.09179 4.39399 5.11163 4.39399 5.11658 4.39399C5.1265 4.39399 5.16121 4.39399 5.16121 4.39399C5.16121 6.03038 4.54137 7.00725 3.49508 7.00725C2.88019 7.00725 2.40415 6.67005 2.24051 6.12955H0.966118C1.17934 7.30477 2.17605 8.07834 3.48516 8.07834ZM3.52979 4.44854C2.70664 4.44854 2.1215 3.8634 2.1215 3.04521C2.1215 2.24686 2.73639 1.63693 3.53475 1.63693C4.3331 1.63693 4.94799 2.25677 4.94799 3.06505C4.94799 3.8634 4.34798 4.44854 3.52979 4.44854Z" fill="black"/>
<path d="M8.47881 8.00891C8.94989 8.00891 9.27221 7.67172 9.27221 7.22543C9.27221 6.77419 8.94989 6.44195 8.47881 6.44195C8.01269 6.44195 7.68541 6.77419 7.68541 7.22543C7.68541 7.67172 8.01269 8.00891 8.47881 8.00891ZM8.47881 4.28986C8.94989 4.28986 9.27221 3.95762 9.27221 3.51133C9.27221 3.06009 8.94989 2.72785 8.47881 2.72785C8.01269 2.72785 7.68541 3.06009 7.68541 3.51133C7.68541 3.95762 8.01269 4.28986 8.47881 4.28986Z" fill="black"/>
<path d="M13.9138 7.90478H15.1386V6.57088H16.1056V5.48987H15.1386V0.749315H13.3336C12.0691 2.65347 11.0625 4.24523 10.4179 5.43037V6.57088H13.9138V7.90478ZM11.603 5.44524C12.4361 3.97746 13.1799 2.80223 13.8642 1.79065H13.9336V5.51962H11.603V5.44524Z" fill="black"/>
<path d="M18.8331 7.90478H20.1124V0.749315H18.838L16.9686 2.05842V3.28819L18.7488 2.03859H18.8331V7.90478Z" fill="black"/>
</svg>
