<svg width="16" height="7" viewBox="0 0 16 7" fill="none" xmlns="http://www.w3.org/2000/svg">
<path d="M2.77857 6.53015C4.18366 6.53015 5.0183 5.43185 5.0183 3.57201C5.0183 2.8717 4.88429 2.28237 4.62778 1.82698C4.25641 1.11901 3.61703 0.736328 2.8092 0.736328C1.60703 0.736328 0.75708 1.54379 0.75708 2.67653C0.75708 3.74039 1.5228 4.51341 2.57566 4.51341C3.22269 4.51341 3.74721 4.21109 4.00755 3.68682H4.01903C4.01903 3.68682 4.03435 3.68682 4.03818 3.68682C4.04583 3.68682 4.07263 3.68682 4.07263 3.68682C4.07263 4.94967 3.59406 5.70356 2.78623 5.70356C2.31149 5.70356 1.94394 5.44333 1.8176 5.02621H0.833652C0.998281 5.93317 1.76783 6.53015 2.77857 6.53015ZM2.81303 3.72891C2.17749 3.72891 1.72571 3.27734 1.72571 2.64592C1.72571 2.0298 2.20046 1.5591 2.81686 1.5591C3.43326 1.5591 3.90801 2.03745 3.90801 2.66122C3.90801 3.27734 3.44475 3.72891 2.81303 3.72891Z" fill="black"/>
<path d="M6.63411 6.47658C6.99783 6.47658 7.24668 6.21635 7.24668 5.87194C7.24668 5.5237 6.99783 5.2673 6.63411 5.2673C6.27422 5.2673 6.02154 5.5237 6.02154 5.87194C6.02154 6.21635 6.27422 6.47658 6.63411 6.47658ZM6.63411 3.60645C6.99783 3.60645 7.24668 3.35005 7.24668 3.00564C7.24668 2.6574 6.99783 2.401 6.63411 2.401C6.27422 2.401 6.02154 2.6574 6.02154 3.00564C6.02154 3.35005 6.27422 3.60645 6.63411 3.60645Z" fill="black"/>
<path d="M10.8304 6.39621H11.7761V5.3668H12.5226V4.53255H11.7761V0.874094H10.3825C9.40616 2.3436 8.62896 3.57201 8.13124 4.48662V5.3668H10.8304V6.39621ZM9.04627 4.4981C9.68948 3.36536 10.2638 2.4584 10.7921 1.67773H10.8457V4.55551H9.04627V4.4981Z" fill="black"/>
<path d="M14.6285 6.39621H15.6163V0.874094H14.6323L13.189 1.88438V2.83343L14.5634 1.86907H14.6285V6.39621Z" fill="black"/>
</svg>
