<svg width="21" height="9" viewBox="0 0 21 9" fill="none" xmlns="http://www.w3.org/2000/svg">
<path d="M3.65941 8.33379C5.55644 8.33379 6.68328 6.85101 6.68328 4.34009C6.68328 3.39462 6.50236 2.59898 6.15604 1.98417C5.65465 1.02837 4.79142 0.511719 3.70076 0.511719C2.0777 0.511719 0.930176 1.60185 0.930176 3.13113C0.930176 4.56742 1.96398 5.61105 3.38545 5.61105C4.25902 5.61105 4.96717 5.2029 5.31866 4.49509H5.33417C5.33417 4.49509 5.35485 4.49509 5.36001 4.49509C5.37035 4.49509 5.40654 4.49509 5.40654 4.49509C5.40654 6.20003 4.76041 7.21783 3.66975 7.21783C3.02879 7.21783 2.53257 6.86651 2.36199 6.30336H1.03356C1.25582 7.52782 2.29479 8.33379 3.65941 8.33379ZM3.70593 4.55192C2.84788 4.55192 2.23793 3.94227 2.23793 3.0898C2.23793 2.25799 2.87889 1.62252 3.7111 1.62252C4.54331 1.62252 5.18427 2.26833 5.18427 3.11047C5.18427 3.94227 4.55882 4.55192 3.70593 4.55192Z" fill="black"/>
<path d="M8.86481 8.26146C9.35586 8.26146 9.69185 7.91014 9.69185 7.44516C9.69185 6.97501 9.35586 6.62885 8.86481 6.62885C8.37892 6.62885 8.03777 6.97501 8.03777 7.44516C8.03777 7.91014 8.37892 8.26146 8.86481 8.26146ZM8.86481 4.38659C9.35586 4.38659 9.69185 4.04044 9.69185 3.57545C9.69185 3.1053 9.35586 2.75914 8.86481 2.75914C8.37892 2.75914 8.03777 3.1053 8.03777 3.57545C8.03777 4.04044 8.37892 4.38659 8.86481 4.38659Z" fill="black"/>
<path d="M14.5302 8.15297H15.807V6.76318H16.8149V5.63688H15.807V0.697713H13.9255C12.6074 2.68165 11.5581 4.34009 10.8861 5.57489V6.76318H14.5302V8.15297ZM12.1215 5.59038C12.9899 4.0611 13.7652 2.83664 14.4786 1.78268H14.5509V5.66788H12.1215V5.59038Z" fill="black"/>
<path d="M19.6581 8.15297H20.9917V0.697713H19.6633L17.7146 2.06167V3.34296L19.5702 2.041H19.6581V8.15297Z" fill="black"/>
</svg>
