<svg width="49" height="48" viewBox="0 0 49 48" fill="none" xmlns="http://www.w3.org/2000/svg">
<rect x="0.333252" width="48" height="48" rx="10" fill="#FEF6E7"/>
<path fill-rule="evenodd" clip-rule="evenodd" d="M29.3333 33C28.2287 33 27.3333 32.1046 27.3333 31V30H21.3333V31C21.3333 32.1046 20.4378 33 19.3333 33H16.8333C15.7287 33 14.8333 32.1046 14.8333 31V29.792C13.9503 29.4062 13.3333 28.5252 13.3333 27.5V24C13.3333 23.5534 13.4797 23.1409 13.7271 22.8081L13.6261 22.7071C13.2356 22.3166 13.2356 21.6834 13.6261 21.2929C13.9696 20.9494 14.5009 20.908 14.8896 21.1688L15.9287 18.0513C16.3371 16.8263 17.4835 16 18.7748 16H29.8917C31.183 16 32.3294 16.8263 32.7378 18.0513L33.7769 21.1688C34.1657 20.908 34.6969 20.9494 35.0404 21.2929C35.4309 21.6834 35.4309 22.3166 35.0404 22.7071L34.9394 22.8081C35.1868 23.1409 35.3333 23.5534 35.3333 24V27.5C35.3333 28.5252 34.7162 29.4062 33.8333 29.792V31C33.8333 32.1046 32.9378 33 31.8333 33H29.3333ZM17.8261 18.6838C17.9622 18.2754 18.3443 18 18.7748 18H29.8917C30.3222 18 30.7043 18.2754 30.8404 18.6838L31.9458 22H16.7207L17.8261 18.6838ZM15.8333 28C15.5571 28 15.3333 27.7761 15.3333 27.5V24H33.3333V27.5C33.3333 27.7761 33.1094 28 32.8333 28H15.8333ZM29.3333 30H31.8333V31H29.3333V30ZM16.8333 30H19.3333V31H16.8333V30Z" fill="#F3A218"/>
</svg>
