<svg width="48" height="48" viewBox="0 0 48 48" fill="none" xmlns="http://www.w3.org/2000/svg">
<rect width="48" height="48" rx="10" fill="#B5E3C4"/>
<path d="M21.5 19C21.5 19.5523 21.0523 20 20.5 20H19.5C18.9477 20 18.5 19.5523 18.5 19C18.5 18.4477 18.9477 18 19.5 18H20.5C21.0523 18 21.5 18.4477 21.5 19Z" fill="#0F973D"/>
<path d="M24.5 23C25.0523 23 25.5 22.5523 25.5 22C25.5 21.4477 25.0523 21 24.5 21H23.5C22.9477 21 22.5 21.4477 22.5 22C22.5 22.5523 22.9477 23 23.5 23H24.5Z" fill="#0F973D"/>
<path d="M21.5 25C21.5 25.5523 21.0523 26 20.5 26H19.5C18.9477 26 18.5 25.5523 18.5 25C18.5 24.4477 18.9477 24 19.5 24H20.5C21.0523 24 21.5 24.4477 21.5 25Z" fill="#0F973D"/>
<path d="M24.5 20C25.0523 20 25.5 19.5523 25.5 19C25.5 18.4477 25.0523 18 24.5 18H23.5C22.9477 18 22.5 18.4477 22.5 19C22.5 19.5523 22.9477 20 23.5 20H24.5Z" fill="#0F973D"/>
<path d="M21.5 22C21.5 22.5523 21.0523 23 20.5 23H19.5C18.9477 23 18.5 22.5523 18.5 22C18.5 21.4477 18.9477 21 19.5 21H20.5C21.0523 21 21.5 21.4477 21.5 22Z" fill="#0F973D"/>
<path d="M24.5 26C25.0523 26 25.5 25.5523 25.5 25C25.5 24.4477 25.0523 24 24.5 24H23.5C22.9477 24 22.5 24.4477 22.5 25C22.5 25.5523 22.9477 26 23.5 26H24.5Z" fill="#0F973D"/>
<path d="M21.5 28C21.5 28.5523 21.0523 29 20.5 29H19.5C18.9477 29 18.5 28.5523 18.5 28C18.5 27.4477 18.9477 27 19.5 27H20.5C21.0523 27 21.5 27.4477 21.5 28Z" fill="#0F973D"/>
<path d="M24.5 29C25.0523 29 25.5 28.5523 25.5 28C25.5 27.4477 25.0523 27 24.5 27H23.5C22.9477 27 22.5 27.4477 22.5 28C22.5 28.5523 22.9477 29 23.5 29H24.5Z" fill="#0F973D"/>
<path fill-rule="evenodd" clip-rule="evenodd" d="M16 17C16 15.8954 16.8954 15 18 15H26C27.1046 15 28 15.8954 28 17V21H31C32.1046 21 33 21.8954 33 23V31H34C34.5523 31 35 31.4477 35 32C35 32.5523 34.5523 33 34 33H14C13.4477 33 13 32.5523 13 32C13 31.4477 13.4477 31 14 31H16V17ZM18 31H26V17H18V31ZM31 27V26H30.5C29.9477 26 29.5 25.5523 29.5 25C29.5 24.4477 29.9477 24 30.5 24H31V23H28V31H31V29H30.5C29.9477 29 29.5 28.5523 29.5 28C29.5 27.4477 29.9477 27 30.5 27H31Z" fill="#0F973D"/>
</svg>
