<svg width="49" height="48" viewBox="0 0 49 48" fill="none" xmlns="http://www.w3.org/2000/svg">
<rect x="0.666504" width="48" height="48" rx="10" fill="#B6D8FF"/>
<path fill-rule="evenodd" clip-rule="evenodd" d="M24.6665 14C21.9051 14 19.6665 16.2386 19.6665 19C19.6665 21.7614 21.9051 24 24.6665 24C27.4279 24 29.6665 21.7614 29.6665 19C29.6665 16.2386 27.4279 14 24.6665 14ZM21.6665 19C21.6665 17.3431 23.0097 16 24.6665 16C26.3234 16 27.6665 17.3431 27.6665 19C27.6665 20.6569 26.3234 22 24.6665 22C23.0097 22 21.6665 20.6569 21.6665 19Z" fill="#1038C3"/>
<path fill-rule="evenodd" clip-rule="evenodd" d="M24.6665 35C23.126 35 20.8963 34.6502 19.2219 33.9174C18.3999 33.5576 17.564 33.0427 17.0783 32.2974C16.8228 31.9054 16.6613 31.4437 16.6666 30.9282C16.6719 30.4174 16.8399 29.9281 17.1224 29.4728C18.4918 27.2656 21.2933 25 24.6665 25C28.0397 25 30.8412 27.2656 32.2106 29.4728C32.4931 29.9281 32.6611 30.4174 32.6664 30.9282C32.6717 31.4437 32.5102 31.9054 32.2548 32.2974C31.7691 33.0427 30.9331 33.5576 30.1111 33.9174C28.4367 34.6502 26.207 35 24.6665 35ZM18.8219 30.5272C18.6902 30.7394 18.6673 30.8757 18.6665 30.9487C18.6658 31.017 18.6834 31.0973 18.7539 31.2055C18.92 31.4605 19.3236 31.7787 20.0238 32.0852C21.3939 32.6848 23.3397 33 24.6665 33C25.9933 33 27.9391 32.6848 29.3092 32.0852C30.0094 31.7787 30.413 31.4605 30.5791 31.2055C30.6496 31.0973 30.6672 31.017 30.6665 30.9487C30.6657 30.8757 30.6428 30.7394 30.5111 30.5272C29.389 28.7185 27.1508 27 24.6665 27C22.1822 27 19.944 28.7185 18.8219 30.5272Z" fill="#1038C3"/>
</svg>
