<svg width="25" height="24" viewBox="0 0 25 24" fill="none" xmlns="http://www.w3.org/2000/svg">
<path d="M0.5 12C0.5 18.6274 5.87258 24 12.5 24C19.1274 24 24.5 18.6274 24.5 12C24.5 5.37258 19.1274 0 12.5 0C5.87258 0 0.5 5.37258 0.5 12Z" fill="#1671D9"/>
<path d="M12.4999 6.90039C14.1499 6.90039 14.3749 6.90039 15.0499 6.90039C15.6499 6.90039 15.9499 7.05039 16.1749 7.12539C16.4749 7.27539 16.6999 7.35039 16.9249 7.57539C17.1499 7.80039 17.2999 8.02539 17.3749 8.32539C17.4499 8.55039 17.5249 8.85039 17.5999 9.45039C17.5999 10.1254 17.5999 10.2754 17.5999 12.0004C17.5999 13.7254 17.5999 13.8754 17.5999 14.5504C17.5999 15.1504 17.4499 15.4504 17.3749 15.6754C17.2249 15.9754 17.1499 16.2004 16.9249 16.4254C16.6999 16.6504 16.4749 16.8004 16.1749 16.8754C15.9499 16.9504 15.6499 17.0254 15.0499 17.1004C14.3749 17.1004 14.2249 17.1004 12.4999 17.1004C10.7749 17.1004 10.6249 17.1004 9.9499 17.1004C9.3499 17.1004 9.0499 16.9504 8.8249 16.8754C8.5249 16.7254 8.2999 16.6504 8.0749 16.4254C7.8499 16.2004 7.6999 15.9754 7.6249 15.6754C7.5499 15.4504 7.4749 15.1504 7.3999 14.5504C7.3999 13.8754 7.3999 13.7254 7.3999 12.0004C7.3999 10.2754 7.3999 10.1254 7.3999 9.45039C7.3999 8.85039 7.5499 8.55039 7.6249 8.32539C7.7749 8.02539 7.8499 7.80039 8.0749 7.57539C8.2999 7.35039 8.5249 7.20039 8.8249 7.12539C9.0499 7.05039 9.3499 6.97539 9.9499 6.90039C10.6249 6.90039 10.8499 6.90039 12.4999 6.90039ZM12.4999 5.77539C10.7749 5.77539 10.6249 5.77539 9.9499 5.77539C9.2749 5.77539 8.8249 5.92539 8.4499 6.07539C8.0749 6.22539 7.6999 6.45039 7.3249 6.82539C6.9499 7.20039 6.7999 7.50039 6.5749 7.95039C6.4249 8.32539 6.3499 8.77539 6.2749 9.45039C6.2749 10.1254 6.2749 10.3504 6.2749 12.0004C6.2749 13.7254 6.2749 13.8754 6.2749 14.5504C6.2749 15.2254 6.4249 15.6754 6.5749 16.0504C6.7249 16.4254 6.9499 16.8004 7.3249 17.1754C7.6999 17.5504 7.9999 17.7004 8.4499 17.9254C8.8249 18.0754 9.2749 18.1504 9.9499 18.2254C10.6249 18.2254 10.8499 18.2254 12.4999 18.2254C14.1499 18.2254 14.3749 18.2254 15.0499 18.2254C15.7249 18.2254 16.1749 18.0754 16.5499 17.9254C16.9249 17.7754 17.2999 17.5504 17.6749 17.1754C18.0499 16.8004 18.1999 16.5004 18.4249 16.0504C18.5749 15.6754 18.6499 15.2254 18.7249 14.5504C18.7249 13.8754 18.7249 13.6504 18.7249 12.0004C18.7249 10.3504 18.7249 10.1254 18.7249 9.45039C18.7249 8.77539 18.5749 8.32539 18.4249 7.95039C18.2749 7.57539 18.0499 7.20039 17.6749 6.82539C17.2999 6.45039 16.9999 6.30039 16.5499 6.07539C16.1749 5.92539 15.7249 5.85039 15.0499 5.77539C14.3749 5.77539 14.2249 5.77539 12.4999 5.77539Z" fill="white"/>
<path d="M12.4999 8.77539C10.6999 8.77539 9.2749 10.2004 9.2749 12.0004C9.2749 13.8004 10.6999 15.2254 12.4999 15.2254C14.2999 15.2254 15.7249 13.8004 15.7249 12.0004C15.7249 10.2004 14.2999 8.77539 12.4999 8.77539ZM12.4999 14.1004C11.3749 14.1004 10.3999 13.2004 10.3999 12.0004C10.3999 10.8754 11.2999 9.90039 12.4999 9.90039C13.6249 9.90039 14.5999 10.8004 14.5999 12.0004C14.5999 13.1254 13.6249 14.1004 12.4999 14.1004Z" fill="white"/>
<path d="M15.7999 9.45039C16.2141 9.45039 16.5499 9.1146 16.5499 8.70039C16.5499 8.28618 16.2141 7.95039 15.7999 7.95039C15.3857 7.95039 15.0499 8.28618 15.0499 8.70039C15.0499 9.1146 15.3857 9.45039 15.7999 9.45039Z" fill="white"/>
</svg>
