<svg width="219" height="445" viewBox="0 0 219 445" fill="none" xmlns="http://www.w3.org/2000/svg">
<path d="M216.917 114.715H217.691C218.118 114.715 218.464 115.062 218.464 115.491V166.218C218.464 166.647 218.118 166.994 217.691 166.994H216.917V114.715Z" fill="#303030"/>
<path d="M1.8396 177.864L1.06594 177.864C0.638656 177.864 0.292277 177.517 0.292277 177.088L0.29228 146.548C0.29228 146.119 0.638659 145.772 1.06594 145.772L1.8396 145.772L1.8396 177.864Z" fill="#303030"/>
<path d="M1.8396 135.419L1.06594 135.419C0.638656 135.419 0.292277 135.072 0.292277 134.643L0.29228 104.103C0.29228 103.675 0.638659 103.327 1.06594 103.327L1.8396 103.327L1.8396 135.419Z" fill="#333333"/>
<path d="M1.8396 87.7988L1.06594 87.7988C0.638659 87.7988 0.292279 87.4512 0.292279 87.0224L0.29228 72.0115C0.29228 71.5827 0.63866 71.235 1.06594 71.235L1.8396 71.235L1.8396 87.7988Z" fill="#333333"/>
<path fill-rule="evenodd" clip-rule="evenodd" d="M3.4802 24.0871C1.83936 29.1552 1.83936 35.4175 1.83936 47.9422V397.852C1.83936 410.377 1.83936 416.639 3.4802 421.707C6.79645 431.95 14.7984 439.981 25.0047 443.309C30.0547 444.956 36.2947 444.956 48.7747 444.956H169.981C182.461 444.956 188.701 444.956 193.751 443.309C203.958 439.981 211.96 431.95 215.276 421.707C216.917 416.639 216.917 410.377 216.917 397.852V47.9421C216.917 35.4175 216.917 29.1552 215.276 24.0871C211.96 13.8443 203.958 5.81369 193.751 2.48558C188.701 0.838867 182.461 0.838867 169.981 0.838867H48.7747C36.2947 0.838867 30.0547 0.838867 25.0047 2.48558C14.7984 5.81369 6.79645 13.8443 3.4802 24.0871ZM56.5117 13.5205V15.8498L56.5486 15.8487L56.5116 16.1086C56.5116 22.2549 61.4763 27.2374 67.6007 27.2374H151.156C157.28 27.2374 162.245 22.2549 162.245 16.1086L162.208 15.8487L162.245 15.8498V13.5205C162.245 11.9482 163.515 10.6736 165.082 10.6736L171.725 10.6736C182.111 10.6736 187.303 10.6736 191.445 12.2441C197.954 14.7127 203.093 19.8696 205.552 26.4023C207.117 30.5586 207.117 35.7699 207.117 46.1926V399.602C207.117 410.024 207.117 415.236 205.552 419.392C203.093 425.925 197.954 431.082 191.445 433.55C187.303 435.121 182.111 435.121 171.725 435.121H47.0316C36.6461 435.121 31.4534 435.121 27.3119 433.55C20.8025 431.082 15.6639 425.925 13.2042 419.392C11.6393 415.236 11.6393 410.024 11.6393 399.602V46.1926C11.6393 35.7699 11.6393 30.5586 13.2042 26.4023C15.6639 19.8696 20.8025 14.7127 27.3119 12.2441C31.4534 10.6736 36.6461 10.6736 47.0317 10.6736L53.675 10.6736C55.2417 10.6736 56.5117 11.9482 56.5117 13.5205Z" fill="#333333"/>
<path fill-rule="evenodd" clip-rule="evenodd" d="M170.188 1.87406H48.5688C36.2406 1.87406 30.1989 1.88045 25.3239 3.47011C15.4315 6.69582 7.67581 14.4793 4.4616 24.407C2.87761 29.2995 2.87124 35.3628 2.87124 47.735V398.059C2.87124 410.431 2.87761 416.495 4.4616 421.387C7.67581 431.315 15.4315 439.099 25.3239 442.324C30.1989 443.914 36.2406 443.92 48.5688 443.92H170.188C182.516 443.92 188.558 443.914 193.433 442.324C203.325 439.099 211.081 431.315 214.295 421.387C215.879 416.495 215.886 410.431 215.886 398.059V47.7351C215.886 35.3628 215.879 29.2995 214.295 24.407C211.081 14.4793 203.325 6.69582 193.433 3.47011C188.558 1.88045 182.516 1.87406 170.188 1.87406ZM3.97107 24.247C2.35547 29.2371 2.35547 35.4031 2.35547 47.735V398.059C2.35547 410.391 2.35547 416.557 3.97107 421.547C7.2363 431.633 15.1151 439.54 25.1645 442.816C30.1368 444.438 36.2808 444.438 48.5688 444.438H170.188C182.476 444.438 188.62 444.438 193.592 442.816C203.642 439.54 211.521 431.633 214.786 421.547C216.401 416.557 216.401 410.391 216.401 398.059V47.7351C216.401 35.4031 216.401 29.2371 214.786 24.247C211.521 14.1617 203.642 6.25473 193.592 2.97782C188.62 1.35645 182.476 1.35645 170.188 1.35645H48.5688C36.2808 1.35645 30.1368 1.35645 25.1645 2.97782C15.1151 6.25473 7.2363 14.1617 3.97107 24.247Z" fill="#303030"/>
<path fill-rule="evenodd" clip-rule="evenodd" d="M5.93406 24.8867C4.41943 29.5649 4.41943 35.3455 4.41943 46.9067V398.887C4.41943 410.448 4.41943 416.229 5.93406 420.907C8.99521 430.362 16.3816 437.775 25.8029 440.847C30.4644 442.367 36.2244 442.367 47.7444 442.367H171.014C182.534 442.367 188.294 442.367 192.956 440.847C202.377 437.775 209.763 430.362 212.825 420.907C214.339 416.229 214.339 410.448 214.339 398.887V46.9067C214.339 35.3455 214.339 29.5649 212.825 24.8867C209.763 15.4317 202.377 8.0189 192.956 4.9468C188.294 3.42676 182.534 3.42676 171.014 3.42676H47.7444C36.2244 3.42676 30.4644 3.42676 25.8029 4.9468C16.3816 8.0189 8.99521 15.4317 5.93406 24.8867ZM56.5124 13.5203V15.8496L56.5492 15.8484L56.5122 16.1084C56.5122 22.2547 61.477 27.2372 67.6013 27.2372H151.157C157.281 27.2372 162.246 22.2547 162.246 16.1084L162.209 15.8484L162.246 15.8496V13.5203C162.246 11.948 163.516 10.6734 165.082 10.6734L171.726 10.6734C182.111 10.6734 187.304 10.6734 191.445 12.2439C197.955 14.7124 203.093 19.8693 205.553 26.4021C207.118 30.5584 207.118 35.7697 207.118 46.1924V399.602C207.118 410.024 207.118 415.236 205.553 419.392C203.093 425.925 197.955 431.082 191.445 433.55C187.304 435.121 182.111 435.121 171.726 435.121H47.0323C36.6468 435.121 31.454 435.121 27.3125 433.55C20.8031 431.082 15.6646 425.925 13.2048 419.392C11.6399 415.236 11.6399 410.024 11.6399 399.602V46.1924C11.6399 35.7697 11.6399 30.5584 13.2048 26.4021C15.6646 19.8693 20.8031 14.7124 27.3125 12.2439C31.454 10.6734 36.6468 10.6734 47.0323 10.6734L53.6756 10.6734C55.2423 10.6734 56.5124 11.948 56.5124 13.5203Z" fill="#121515"/>
<rect x="171.013" y="0.838867" width="3.09463" height="2.58809" fill="#414141"/>
<rect x="214.338" y="45.354" width="2.5789" height="3.10571" fill="#414141"/>
<rect x="1.84009" y="45.354" width="2.57887" height="3.10571" fill="#414141"/>
<rect x="1.84009" y="397.334" width="2.57887" height="3.10568" fill="#414141"/>
<rect x="214.338" y="397.334" width="2.5789" height="3.10568" fill="#414141"/>
<rect x="44.6489" y="442.367" width="3.09464" height="2.58809" fill="#414141"/>
<path fill-rule="evenodd" clip-rule="evenodd" d="M131.299 21.5436C133.578 21.5436 135.425 19.6896 135.425 17.4027C135.425 15.1157 133.578 13.2617 131.299 13.2617C129.02 13.2617 127.173 15.1157 127.173 17.4027C127.173 19.6896 129.02 21.5436 131.299 21.5436Z" fill="#262C2D"/>
<path fill-rule="evenodd" clip-rule="evenodd" d="M131.299 19.9911C132.723 19.9911 133.877 18.8324 133.877 17.403C133.877 15.9737 132.723 14.8149 131.299 14.8149C129.874 14.8149 128.72 15.9737 128.72 17.403C128.72 18.8324 129.874 19.9911 131.299 19.9911Z" fill="#121515"/>
<path opacity="0.4" fill-rule="evenodd" clip-rule="evenodd" d="M131.299 16.8853C131.584 16.8853 131.815 16.6535 131.815 16.3675C131.815 16.0815 131.584 15.8496 131.299 15.8496C131.014 15.8496 130.783 16.0815 130.783 16.3675C130.783 16.6535 131.014 16.8853 131.299 16.8853Z" fill="#636F73"/>
<path fill-rule="evenodd" clip-rule="evenodd" d="M96.7427 17.4025C96.7427 16.5448 97.4379 15.8496 98.2955 15.8496H120.463C121.32 15.8496 122.016 16.5448 122.016 17.4025C122.016 18.2601 121.32 18.9553 120.463 18.9553H98.2955C97.4379 18.9553 96.7427 18.2601 96.7427 17.4025Z" fill="#262C2D"/>
</svg>
