<svg width="283" height="576" viewBox="0 0 283 576" fill="none" xmlns="http://www.w3.org/2000/svg">
<path d="M280.57 147.643H281.572C282.125 147.643 282.574 148.093 282.574 148.649V214.379C282.574 214.935 282.125 215.385 281.572 215.385H280.57V147.643Z" fill="#303030"/>
<path d="M2.00342 229.471L1.00138 229.471C0.447969 229.471 -0.000657519 229.02 -0.000657471 228.465L-0.000654025 188.892C-0.000653977 188.336 0.447973 187.886 1.00138 187.886L2.00342 187.886L2.00342 229.471Z" fill="#303030"/>
<path d="M2.00342 174.471L1.00138 174.471C0.447969 174.471 -0.000657519 174.021 -0.000657471 173.465L-0.000654025 133.893C-0.000653977 133.337 0.447973 132.886 1.00138 132.886L2.00342 132.886L2.00342 174.471Z" fill="#333333"/>
<path d="M2.00317 112.765L1.00114 112.765C0.447728 112.765 -0.000898799 112.315 -0.00089875 111.759L-0.000897057 92.3082C-0.000897008 91.7525 0.447729 91.3021 1.00114 91.3021L2.00318 91.3021L2.00317 112.765Z" fill="#333333"/>
<path fill-rule="evenodd" clip-rule="evenodd" d="M4.12838 30.2087C2.00317 36.7758 2.00317 44.8904 2.00317 61.1196V514.527C2.00317 530.756 2.00317 538.871 4.12838 545.438C8.42354 558.71 18.7876 569.116 32.0067 573.429C38.5474 575.562 46.6294 575.562 62.7933 575.562H219.779C235.943 575.562 244.025 575.562 250.566 573.429C263.785 569.116 274.149 558.71 278.444 545.438C280.569 538.871 280.569 530.756 280.569 514.527V61.1196C280.569 44.8904 280.569 36.7758 278.444 30.2087C274.149 16.9361 263.785 6.53027 250.566 2.21777C244.025 0.0839844 235.943 0.0839844 219.779 0.0839844H62.7933C46.6294 0.0839844 38.5474 0.0839844 32.0067 2.21777C18.7876 6.53027 8.42354 16.9361 4.12838 30.2087ZM72.8142 16.5167V19.5349L72.8619 19.5334L72.814 19.8702C72.814 27.8345 79.2443 34.2907 87.1765 34.2907H195.396C203.329 34.2907 209.759 27.8345 209.759 19.8702L209.711 19.5334L209.759 19.5349V16.5167C209.759 14.4793 211.404 12.8277 213.433 12.8277L222.037 12.8277C235.488 12.8277 242.214 12.8277 247.578 14.8627C256.009 18.0614 262.664 24.7436 265.85 33.2087C267.877 38.5943 267.877 45.347 267.877 58.8525V516.794C267.877 530.299 267.877 537.052 265.85 542.438C262.664 550.903 256.009 557.585 247.578 560.784C242.214 562.819 235.488 562.819 222.037 562.819H60.5357C47.0845 562.819 40.3589 562.819 34.995 560.784C26.564 557.585 19.9086 550.903 16.7228 542.438C14.6959 537.052 14.6959 530.299 14.6959 516.794V58.8525C14.6959 45.347 14.6959 38.5943 16.7228 33.2087C19.9086 24.7436 26.564 18.0614 34.995 14.8627C40.3589 12.8277 47.0845 12.8277 60.5357 12.8277L69.1401 12.8277C71.1693 12.8277 72.8142 14.4793 72.8142 16.5167Z" fill="#333333"/>
<path fill-rule="evenodd" clip-rule="evenodd" d="M220.047 1.4256H62.5266C46.5593 1.4256 38.7341 1.43388 32.42 3.49373C19.6076 7.67355 9.56248 17.7592 5.39947 30.6234C3.3479 36.9629 3.33965 44.8197 3.33965 60.8514V514.795C3.33965 530.827 3.3479 538.684 5.39947 545.023C9.56248 557.888 19.6076 567.973 32.42 572.153C38.7341 574.213 46.5593 574.221 62.5266 574.221H220.047C236.014 574.221 243.839 574.213 250.153 572.153C262.966 567.973 273.011 557.888 277.174 545.023C279.225 538.684 279.234 530.827 279.234 514.795V60.8515C279.234 44.8197 279.225 36.9629 277.174 30.6234C273.011 17.7592 262.966 7.67355 250.153 3.49373C243.839 1.43388 236.014 1.4256 220.047 1.4256ZM4.76414 30.4161C2.67163 36.8822 2.67163 44.8719 2.67163 60.8514V514.795C2.67163 530.775 2.67163 538.765 4.76414 545.231C8.99323 558.299 19.1978 568.545 32.2136 572.791C38.6537 574.892 46.6113 574.892 62.5266 574.892H220.047C235.962 574.892 243.92 574.892 250.36 572.791C263.375 568.545 273.58 558.299 277.809 545.231C279.902 538.765 279.902 530.775 279.902 514.795V60.8515C279.902 44.8719 279.902 36.8822 277.809 30.4161C273.58 17.3478 263.375 7.102 250.36 2.85584C243.92 0.754883 235.962 0.754883 220.047 0.754883H62.5266C46.6113 0.754883 38.6537 0.754883 32.2136 2.85584C19.1978 7.102 8.99323 17.3478 4.76414 30.4161Z" fill="#303030"/>
<path fill-rule="evenodd" clip-rule="evenodd" d="M7.3067 31.2454C5.34497 37.3073 5.34497 44.7977 5.34497 59.7785V515.869C5.34497 530.85 5.34497 538.34 7.3067 544.402C11.2715 556.653 20.8383 566.259 33.0406 570.24C39.0781 572.209 46.5384 572.209 61.459 572.209H221.117C236.037 572.209 243.498 572.209 249.535 570.24C261.737 566.259 271.304 556.653 275.269 544.402C277.231 538.34 277.231 530.85 277.231 515.869V59.7785C277.231 44.7977 277.231 37.3073 275.269 31.2454C271.304 18.9938 261.737 9.38841 249.535 5.40763C243.498 3.43799 236.037 3.43799 221.117 3.43799H61.459C46.5384 3.43799 39.0781 3.43799 33.0406 5.40763C20.8383 9.38841 11.2715 18.9938 7.3067 31.2454ZM72.8152 16.517V19.5353L72.8629 19.5338L72.8149 19.8706C72.8149 27.8349 79.2453 34.2911 87.1774 34.2911H195.397C203.33 34.2911 209.76 27.8349 209.76 19.8706L209.712 19.5338L209.76 19.5353V16.517C209.76 14.4797 211.405 12.8281 213.434 12.8281L222.038 12.8281C235.489 12.8281 242.215 12.8281 247.579 14.8631C256.01 18.0618 262.665 24.744 265.851 33.209C267.878 38.5947 267.878 45.3474 267.878 58.8529V516.794C267.878 530.3 267.878 537.053 265.851 542.438C262.665 550.903 256.01 557.585 247.579 560.784C242.215 562.819 235.489 562.819 222.038 562.819H60.5366C47.0854 562.819 40.3598 562.819 34.9959 560.784C26.5649 557.585 19.9095 550.903 16.7237 542.438C14.6969 537.053 14.6969 530.3 14.6969 516.794V58.8529C14.6969 45.3474 14.6969 38.5947 16.7237 33.209C19.9095 24.744 26.5649 18.0618 34.9959 14.8631C40.3598 12.8281 47.0854 12.8281 60.5367 12.8281L69.141 12.8281C71.1702 12.8281 72.8152 14.4797 72.8152 16.517Z" fill="#121515"/>
<rect x="221.116" y="0.0839844" width="4.00813" height="3.3536" fill="#414141"/>
<rect x="277.23" y="57.7661" width="3.34017" height="4.02432" fill="#414141"/>
<rect x="2.00415" y="57.7661" width="3.34012" height="4.02432" fill="#414141"/>
<rect x="2.00415" y="513.855" width="3.34012" height="4.02431" fill="#414141"/>
<rect x="277.23" y="513.855" width="3.34017" height="4.02431" fill="#414141"/>
<rect x="57.4497" y="572.209" width="4.00815" height="3.3536" fill="#414141"/>
<path fill-rule="evenodd" clip-rule="evenodd" d="M169.678 26.9127C172.629 26.9127 175.022 24.5104 175.022 21.5469C175.022 18.5835 172.629 16.1812 169.678 16.1812C166.726 16.1812 164.334 18.5835 164.334 21.5469C164.334 24.5104 166.726 26.9127 169.678 26.9127Z" fill="#262C2D"/>
<path fill-rule="evenodd" clip-rule="evenodd" d="M169.677 24.9011C171.522 24.9011 173.017 23.3996 173.017 21.5475C173.017 19.6953 171.522 18.1938 169.677 18.1938C167.833 18.1938 166.337 19.6953 166.337 21.5475C166.337 23.3996 167.833 24.9011 169.677 24.9011Z" fill="#121515"/>
<path opacity="0.4" fill-rule="evenodd" clip-rule="evenodd" d="M169.678 20.8767C170.047 20.8767 170.347 20.5763 170.347 20.2057C170.347 19.8351 170.047 19.5347 169.678 19.5347C169.309 19.5347 169.01 19.8351 169.01 20.2057C169.01 20.5763 169.309 20.8767 169.678 20.8767Z" fill="#636F73"/>
<path fill-rule="evenodd" clip-rule="evenodd" d="M124.921 21.5468C124.921 20.4355 125.822 19.5347 126.933 19.5347H155.642C156.753 19.5347 157.654 20.4355 157.654 21.5468C157.654 22.6581 156.753 23.559 155.642 23.559H126.933C125.822 23.559 124.921 22.6581 124.921 21.5468Z" fill="#262C2D"/>
</svg>
