<svg width="296" height="600" viewBox="0 0 296 600" fill="none" xmlns="http://www.w3.org/2000/svg">
<path d="M292.966 153.74H294.011C294.588 153.74 295.055 154.21 295.055 154.788V223.273C295.055 223.852 294.588 224.321 294.011 224.321H292.966V153.74Z" fill="#303030"/>
<path d="M2.58813 238.997L1.54361 238.997C0.96673 238.997 0.49908 238.528 0.499081 237.949L0.499084 196.718C0.499084 196.139 0.966734 195.67 1.54361 195.67L2.58814 195.67L2.58813 238.997Z" fill="#303030"/>
<path d="M2.58813 181.693L1.54361 181.693C0.96673 181.693 0.49908 181.224 0.499081 180.645L0.499084 139.415C0.499084 138.836 0.966734 138.366 1.54361 138.366L2.58814 138.366L2.58813 181.693Z" fill="#333333"/>
<path d="M2.58813 117.401L1.54361 117.401C0.966734 117.401 0.499084 116.932 0.499084 116.353L0.499085 96.0873C0.499085 95.5084 0.966735 95.0391 1.54361 95.0391L2.58814 95.0391L2.58813 117.401Z" fill="#333333"/>
<path fill-rule="evenodd" clip-rule="evenodd" d="M4.80345 31.3868C2.58813 38.2291 2.58813 46.6836 2.58813 63.5928V535.996C2.58813 552.906 2.58813 561.36 4.80345 568.202C9.28075 582.031 20.0842 592.873 33.8639 597.366C40.682 599.589 49.1066 599.589 65.956 599.589H229.598C246.448 599.589 254.872 599.589 261.69 597.366C275.47 592.873 286.273 582.031 290.751 568.202C292.966 561.36 292.966 552.906 292.966 535.996V63.5928C292.966 46.6836 292.966 38.2291 290.751 31.3868C286.273 17.5582 275.47 6.71637 261.69 2.22318C254.872 0 246.448 0 229.598 0H65.956C49.1066 0 40.682 0 33.8639 2.22318C20.0842 6.71637 9.28075 17.5582 4.80345 31.3868ZM76.4018 17.1211V20.2658L76.4515 20.2643L76.4016 20.6152C76.4016 28.9131 83.1046 35.6399 91.3731 35.6399H204.182C212.45 35.6399 219.153 28.9131 219.153 20.6152L219.103 20.2643L219.153 20.2658V17.1211C219.153 14.9984 220.868 13.2776 222.983 13.2776L231.952 13.2776C245.974 13.2776 252.985 13.2776 258.576 15.3979C267.365 18.7306 274.302 25.6928 277.623 34.5125C279.736 40.1237 279.736 47.1594 279.736 61.2308V538.358C279.736 552.43 279.736 559.465 277.623 565.077C274.302 573.896 267.365 580.859 258.576 584.191C252.985 586.312 245.974 586.312 231.952 586.312H63.6026C49.5811 586.312 42.5703 586.312 36.9789 584.191C28.1904 580.859 21.2528 573.896 17.9319 565.077C15.8191 559.465 15.8191 552.43 15.8191 538.358V61.2307C15.8191 47.1594 15.8191 40.1237 17.9319 34.5125C21.2528 25.6928 28.1904 18.7306 36.9789 15.3979C42.5703 13.2776 49.5811 13.2776 63.6027 13.2776L72.5719 13.2776C74.6871 13.2776 76.4018 14.9984 76.4018 17.1211Z" fill="#333333"/>
<path fill-rule="evenodd" clip-rule="evenodd" d="M229.877 1.39706H65.6779C49.0336 1.39706 40.8765 1.40569 34.2947 3.55184C20.939 7.90678 10.4679 18.415 6.12842 31.8181C3.98985 38.4233 3.98126 46.6093 3.98126 63.3127V536.275C3.98126 552.979 3.98985 561.165 6.12842 567.77C10.4679 581.173 20.939 591.681 34.2947 596.036C40.8765 598.182 49.0336 598.191 65.6779 598.191H229.877C246.522 598.191 254.679 598.182 261.26 596.036C274.616 591.681 285.087 581.173 289.427 567.77C291.565 561.165 291.574 552.979 291.574 536.275V63.3127C291.574 46.6093 291.565 38.4233 289.427 31.8181C285.087 18.415 274.616 7.90678 261.26 3.55184C254.679 1.40569 246.522 1.39706 229.877 1.39706ZM5.46615 31.6022C3.28491 38.3392 3.28491 46.6637 3.28491 63.3127V536.275C3.28491 552.924 3.28491 561.249 5.46615 567.986C9.87456 581.602 20.5118 592.277 34.0795 596.701C40.7927 598.89 49.0878 598.89 65.6779 598.89H229.877C246.467 598.89 254.762 598.89 261.476 596.701C275.043 592.277 285.681 581.602 290.089 567.986C292.27 561.249 292.27 552.924 292.27 536.275V63.3127C292.27 46.6637 292.27 38.3392 290.089 31.6022C285.681 17.9863 275.043 7.31128 261.476 2.88722C254.762 0.698242 246.467 0.698242 229.877 0.698242H65.6779C49.0878 0.698242 40.7927 0.698242 34.0795 2.88722C20.5118 7.31128 9.87456 17.9863 5.46615 31.6022Z" fill="#303030"/>
<path fill-rule="evenodd" clip-rule="evenodd" d="M8.11669 32.4666C6.07178 38.7825 6.07178 46.5867 6.07178 62.1952V537.394C6.07178 553.002 6.07178 560.807 8.11669 567.123C12.2496 579.887 22.222 589.895 34.9417 594.043C41.2353 596.095 49.0119 596.095 64.5652 596.095H230.993C246.546 596.095 254.323 596.095 260.616 594.043C273.336 589.895 283.308 579.887 287.441 567.123C289.486 560.807 289.486 553.002 289.486 537.394V62.1952C289.486 46.5867 289.486 38.7825 287.441 32.4666C283.308 19.7017 273.336 9.69386 260.616 5.54631C254.323 3.49414 246.546 3.49414 230.993 3.49414H64.5652C49.0119 3.49414 41.2353 3.49414 34.9417 5.54631C22.222 9.69386 12.2496 19.7017 8.11669 32.4666ZM76.4029 17.1212V20.2659L76.4526 20.2643L76.4027 20.6153C76.4027 28.9132 83.1056 35.6399 91.3742 35.6399H204.183C212.451 35.6399 219.154 28.9132 219.154 20.6153L219.104 20.2643L219.154 20.2659V17.1212C219.154 14.9985 220.869 13.2776 222.984 13.2776L231.953 13.2776C245.975 13.2776 252.986 13.2776 258.577 15.3979C267.366 18.7306 274.303 25.6928 277.624 34.5125C279.737 40.1238 279.737 47.1594 279.737 61.2308V538.358C279.737 552.43 279.737 559.465 277.624 565.077C274.303 573.896 267.366 580.859 258.577 584.191C252.986 586.312 245.975 586.312 231.953 586.312H63.6037C49.5822 586.312 42.5714 586.312 36.98 584.191C28.1915 580.859 21.2539 573.896 17.933 565.077C15.8202 559.465 15.8202 552.43 15.8202 538.358V61.2308C15.8202 47.1594 15.8202 40.1238 17.933 34.5125C21.2539 25.6928 28.1915 18.7306 36.98 15.3979C42.5714 13.2776 49.5822 13.2776 63.6037 13.2776L72.573 13.2776C74.6882 13.2776 76.4029 14.9985 76.4029 17.1212Z" fill="#121515"/>
<rect x="230.992" width="4.17809" height="3.49411" fill="#414141"/>
<rect x="289.485" y="60.0986" width="3.48181" height="4.19293" fill="#414141"/>
<rect x="2.58911" y="60.0986" width="3.48175" height="4.19293" fill="#414141"/>
<rect x="2.58911" y="535.297" width="3.48175" height="4.19295" fill="#414141"/>
<rect x="289.485" y="535.297" width="3.48181" height="4.19295" fill="#414141"/>
<rect x="60.3857" y="596.095" width="4.1781" height="3.49409" fill="#414141"/>
<path fill-rule="evenodd" clip-rule="evenodd" d="M177.373 27.9536C180.449 27.9536 182.944 25.4506 182.944 22.363C182.944 19.2754 180.449 16.7725 177.373 16.7725C174.296 16.7725 171.802 19.2754 171.802 22.363C171.802 25.4506 174.296 27.9536 177.373 27.9536Z" fill="#262C2D"/>
<path fill-rule="evenodd" clip-rule="evenodd" d="M177.372 25.8564C179.295 25.8564 180.854 24.292 180.854 22.3623C180.854 20.4325 179.295 18.8682 177.372 18.8682C175.449 18.8682 173.89 20.4325 173.89 22.3623C173.89 24.292 175.449 25.8564 177.372 25.8564Z" fill="#121515"/>
<path opacity="0.4" fill-rule="evenodd" clip-rule="evenodd" d="M177.373 21.6639C177.758 21.6639 178.07 21.3509 178.07 20.9648C178.07 20.5786 177.758 20.2656 177.373 20.2656C176.988 20.2656 176.677 20.5786 176.677 20.9648C176.677 21.3509 176.988 21.6639 177.373 21.6639Z" fill="#636F73"/>
<path fill-rule="evenodd" clip-rule="evenodd" d="M130.718 22.3621C130.718 21.2042 131.656 20.2656 132.814 20.2656H162.742C163.9 20.2656 164.839 21.2042 164.839 22.3621C164.839 23.5199 163.9 24.4586 162.742 24.4586H132.814C131.656 24.4586 130.718 23.5199 130.718 22.3621Z" fill="#262C2D"/>
</svg>
