<svg width="93" height="32" viewBox="0 0 93 32" fill="none" xmlns="http://www.w3.org/2000/svg">
<path d="M33.0162 31.9999C31.0849 31.9999 29.419 31.5789 28.0183 30.7369C26.6264 29.8863 25.552 28.7006 24.7951 27.1799C24.0469 25.6505 23.6729 23.872 23.6729 21.8444C23.6729 19.8167 24.0469 18.0296 24.7951 16.4831C25.552 14.928 26.6046 13.7165 27.9531 12.8487C29.3102 11.9724 30.8935 11.5342 32.7031 11.5342C33.747 11.5342 34.7779 11.706 35.7958 12.0497C36.8136 12.3934 37.7402 12.9518 38.5753 13.7251C39.4105 14.4898 40.076 15.5036 40.5719 16.7666C41.0677 18.0296 41.3157 19.5847 41.3157 21.432V22.7207H26.8349V20.0616L38.1838 20.0916C38.1838 18.9747 37.9576 17.978 37.5052 17.1017C37.0616 16.2253 36.4265 15.5337 35.6 15.0268C34.7823 14.5198 33.8166 14.2664 32.7031 14.2664C31.4764 14.2664 30.4151 14.5671 29.519 15.1685C28.6316 15.7614 27.9487 16.5346 27.4702 17.4883C26.9917 18.442 26.8349 18.9704 26.8349 20.0616V22.7207C26.8349 24.2157 27.0135 25.0706 27.5355 26.1102C28.0662 27.1412 28.8013 27.9274 29.7408 28.4686C30.6804 29.0013 31.7722 29.2677 33.0162 29.2677C33.8253 29.2677 34.5561 29.156 35.2085 28.9326C35.8697 28.7006 36.4395 28.357 36.918 27.9016C37.3965 27.4376 37.7662 26.862 38.0272 26.1746L39.4235 29.6285C38.6841 30.376 37.7706 30.9603 36.6831 31.3813C35.5957 31.7937 34.3734 31.9999 33.0162 31.9999Z" fill="#1038C3"/>
<path d="M51.4176 31.9999C49.6196 31.9999 48.0714 31.5617 46.7729 30.6853C45.4744 29.809 44.4755 28.6018 43.7763 27.0639C43.0771 25.5259 42.7275 23.7689 42.7275 21.7928C42.7275 19.7823 43.0855 18.0081 43.8013 16.4702C44.5255 14.9237 45.5327 13.7165 46.8228 12.8487C48.1214 11.9724 49.6363 11.5342 51.3676 11.5342C52.7161 11.5342 53.9314 11.7919 55.0135 12.3074C56.0956 12.823 56.982 13.5447 57.6729 14.4726C58.3638 15.4005 58.7925 16.4831 58.9589 17.7203H56.0123C55.7876 16.8182 55.2882 16.0191 54.514 15.3232C53.7482 14.6186 52.7161 14.2664 51.4176 14.2664C50.2689 14.2664 49.2617 14.5757 48.3961 15.1943C47.5387 15.8043 46.8686 16.6678 46.3859 17.7847C45.9114 18.8931 45.6742 20.1947 45.6742 21.6897C45.6742 23.219 45.9072 24.5508 46.3734 25.6849C46.8478 26.819 47.5137 27.6997 48.3711 28.3269C49.2368 28.9541 50.2523 29.2677 51.4176 29.2677C52.1834 29.2677 52.8784 29.1302 53.5027 28.8553C54.127 28.5803 54.6555 28.1851 55.0884 27.6696C55.5212 27.1541 55.8292 26.5355 56.0123 25.8138H58.9589C58.7925 26.9822 58.3805 28.0347 57.7228 28.9713C57.0736 29.8992 56.2121 30.6381 55.1383 31.188C54.0729 31.7292 52.8326 31.9999 51.4176 31.9999Z" fill="#1038C3"/>
<path d="M73.6968 23.0651V11.5342H76.6017V31.2942H73.6968V27.7384C73.2537 28.7289 72.3674 29.5713 71.4319 30.2655C70.4965 30.9513 69.3148 31.2942 67.887 31.2942C66.7053 31.2942 65.6549 31.0275 64.7359 30.4941C63.8168 29.9523 63.0947 29.1395 62.5695 28.0558C62.0443 26.9637 61.7817 25.588 61.7817 23.9286V11.5342H64.6867V23.7254C64.6867 25.1477 65.0723 26.2822 65.8437 27.1288C66.6233 27.9754 67.6162 28.3987 68.8224 28.3987C69.5446 28.3987 70.279 28.2083 71.0258 27.8273C71.7807 27.4463 72.4126 26.8621 72.9213 26.0748C73.4383 25.2874 73.6968 24.2842 73.6968 23.0651Z" fill="#1038C3"/>
<path d="M0.5 15.0485H11.5348L15.9487 31.6007L22.5696 4.56543" stroke="#1038C3" stroke-width="2.35077"/>
<path d="M23.6737 1.25488L25.8868 8.12958L17.6113 5.76038L23.6737 1.25488Z" fill="#3F3D56"/>
<path d="M80.4371 28.687H80.2804L80.2804 28.8437L80.2803 30.7154L80.2803 30.8714L80.4363 30.8721L91.9736 30.9234L92.131 30.9241L92.131 30.7667L92.1311 29.7178V29.7178V28.8438V28.687H91.9744H80.4371Z" fill="#1038C3" stroke="#1038C3" stroke-width="0.313436"/>
<path d="M82.5039 11.5381H79.4761V31.0285H82.5039V11.5381Z" fill="#1038C3"/>
</svg>
